<?xml version="1.0" standalone="no"?><!DOCTYPE svg PUBLIC "-//W3C//DTD SVG 1.1//EN" "http://www.w3.org/Graphics/SVG/1.1/DTD/svg11.dtd"><svg t="1640251908597" class="icon" viewBox="0 0 1024 1024" version="1.1" xmlns="http://www.w3.org/2000/svg" p-id="31720" xmlns:xlink="http://www.w3.org/1999/xlink" width="25" height="25"><defs><style type="text/css"></style></defs><path d="M574.131333 783.961579v231.929508c0 4.399953-3.599961 7.997914-7.997915 7.997914H455.567606c-4.399953 0-7.997914-3.598961-7.997914-7.997914V782.962589c0-35.189622 28.89069-63.781315 64.180311-63.28132 34.789626 0.599994 62.38133 29.590682 62.38133 64.28031z" fill="#D4237A" p-id="31721"></path><path d="M928.423527 991.899345c0 17.69381-14.295846 32.089655-31.989657 32.089655H646.108559c-4.398953 0-7.997914-3.598961-7.997914-7.997914V784.461573c0-70.279245-56.482393-128.360621-126.761638-128.660618-70.479243-0.199998-127.660629 56.78239-127.660629 127.261633v232.928498c0 4.399953-3.599961 7.997914-7.997914 7.997914H127.067135c-17.69481 0-31.989656-14.295846-31.989656-31.989656l0.099999-417.97351c0-18.494801 7.996914-36.189611 21.992763-48.285482L448.469682 237.827445c36.088612-31.389663 89.772036-31.389663 125.861648 0l331.39944 287.912907c13.99585 12.09587 21.992764 29.690681 21.992764 48.185483l0.699993 417.97251z" fill="#D4237A" p-id="31722"></path><path d="M1023.694503 475.954887v0.799992c0 26.592714-31.089666 41.087559-51.484447 24.092741l-57.482382-48.085484-178.946078-150.953378-162.550254-137.058528c-35.789616-30.190676-87.973055-30.190676-123.76267 0L52.389937 499.648633C31.69516 517.142445 0.0055 502.447603 0.0055 475.354894v-0.399996c0-9.396899 4.098956-18.294803 11.296879-24.292739L428.874893 98.369943c47.685488-40.187568 117.364739-40.187568 165.050227 0L722.685737 206.937777c5.198944 4.399953 13.195858 0.699992 13.195858-6.097934V95.969969c0-17.69381 14.295846-31.989656 31.990656-31.989656h114.964765c17.69481 0 31.990656 14.295846 31.990657 31.989656v258.222226c0 9.396899 4.198955 18.394802 11.396877 24.492737 20.992774 17.69481 65.379298 55.183407 86.273074 72.778218 7.097924 5.997936 11.19688 14.89484 11.196879 24.492737z" fill="#D4237A" p-id="31723"></path></svg>